<?xml version="1.0" encoding="UTF-8"?>
<svg id="Camada_1" data-name="Camada 1" xmlns="http://www.w3.org/2000/svg" viewBox="0 0 200 200">
  <defs>
    <style>
      .cls-1 {
        fill: #17459e;
      }

      .cls-2 {
        fill: #f3c811;
      }

      .cls-3 {
        fill: #304c99;
      }

      .cls-4 {
        fill: #ed1c24;
      }

      .cls-5 {
        fill: #78bf3d;
      }

      .cls-6 {
        fill: #fff;
      }

      .cls-7 {
        fill: #1c8230;
      }

      .cls-8 {
        fill: #9fcbff;
      }
    </style>
  </defs>
  <g>
    <path class="cls-8" d="M155.92,133.2l-100.83,1.51-12.45-41.36c-.17-.57-.13-1.19.11-1.74l24.25-54.34c.41-.93,1.35-1.51,2.36-1.48l50.34,1.61c.86.03,1.64.49,2.08,1.23l36.2,61.42c.25.43.37.93.34,1.43l-2.4,31.72Z"/>
    <path class="cls-5" d="M139.96,159.36c-.28.45-.74.75-1.26.82-5.65.78-38.52,5.28-39.68,5.28h-32.58l-13.78-16.64c-.85-1.02-1.35-2.28-1.45-3.6l-2.32-30.9,14.76-4.02,49.86,1.46,29.84-.49,12.24,20.59c.45.75.44,1.69-.03,2.44l-15.61,25.06Z"/>
    <path class="cls-7" d="M141.55,141.97l-42.19,23.3c-.22.12-.47.18-.72.18h-31.5c-.44,0-.86-.2-1.14-.54l-13.58-16.46c-.73-.88-1.16-1.97-1.24-3.11l-.11-1.52,12.66-4.83c1.37-.2,41.98-4.33,43.34-4.06l34.48,7.02Z"/>
    <path class="cls-2" d="M99.82,110.32h-37.83c-1.54,0-2.33-1.85-1.26-2.96l15.08-15.69c.33-.34.79-.54,1.26-.54h37.26c1.55,0,2.33,1.86,1.26,2.97l-15.76,16.21v.02Z"/>
    <circle class="cls-2" cx="137.81" cy="64.63" r="21.78"/>
    <path class="cls-1" d="M82.32,91.12h0s-18.66,19.18-18.66,19.18v27.9c0,2.22,1.58,4.12,3.76,4.53l7.48,1.39,6.56,1.22,19.51,3.64v-38.69l-18.65-19.18Z"/>
    <path class="cls-2" d="M100.96,148.99l38.99-6.39c1.98-.32,3.43-2.03,3.43-4.04v-28.21h-42.42v38.64Z"/>
    <polygon class="cls-3" points="143.35 110.32 143.38 110.34 143.38 110.32 143.35 110.32"/>
    <polygon class="cls-3" points="100.96 110.32 100.96 110.34 143.38 110.34 143.35 110.32 100.96 110.32"/>
    <path class="cls-4" d="M110.98,118.59h8.21c1.04,0,1.89.84,1.89,1.89v25.21l-11.98,2v-27.21c0-1.04.84-1.89,1.89-1.89Z"/>
    <path class="cls-4" d="M127.05,118.58h9.55c.67,0,1.22.55,1.22,1.22v8.16c0,.64-.5,1.18-1.14,1.22l-5.42.34-4.12.3c-.71.05-1.31-.51-1.31-1.21v-8.81c0-.67.55-1.22,1.22-1.22Z"/>
    <path class="cls-4" d="M96.68,111.28h48.19c2,0,2.96-2.46,1.48-3.81l-17.18-15.77c-.4-.37-.93-.58-1.48-.58h-46.21c-1.93,0-2.92,2.32-1.58,3.71l15.2,15.77c.41.43.98.67,1.58.67Z"/>
  </g>
  <path class="cls-6" d="M82.9,89.91h0c1.28.41,1.28,2.23,0,2.64h0c-2.48.8-4.42,2.74-5.22,5.22h0c-.41,1.28-2.23,1.28-2.64,0h0c-.8-2.48-2.74-4.42-5.22-5.22h0c-1.28-.41-1.28-2.23,0-2.64h0c2.48-.8,4.42-2.74,5.22-5.22h0c.41-1.28,2.23-1.28,2.64,0h0c.8,2.48,2.74,4.42,5.22,5.22Z"/>
  <path class="cls-6" d="M100.92,73.53h0c1.34.43,1.34,2.33,0,2.76h0c-2.59.83-4.62,2.86-5.45,5.45h0c-.43,1.34-2.33,1.34-2.76,0h0c-.83-2.59-2.86-4.62-5.45-5.45h0c-1.34-.43-1.34-2.33,0-2.76h0c2.59-.83,4.62-2.86,5.45-5.45h0c.43-1.34,2.33-1.34,2.76,0h0c.83,2.59,2.86,4.62,5.45,5.45Z"/>
  <path class="cls-6" d="M109.41,109.57h0c1.66.53,1.66,2.88,0,3.41h0c-3.2,1.03-5.71,3.54-6.74,6.74h0c-.53,1.66-2.88,1.66-3.41,0h0c-1.03-3.2-3.54-5.71-6.74-6.74h0c-1.66-.53-1.66-2.88,0-3.41h0c3.2-1.03,5.71-3.54,6.74-6.74h0c.53-1.66,2.88-1.66,3.41,0h0c1.03,3.2,3.54,5.71,6.74,6.74Z"/>
</svg>