<?xml version="1.0" encoding="UTF-8"?>
<svg id="Camada_1" data-name="Camada 1" xmlns="http://www.w3.org/2000/svg" viewBox="0 0 300 200">
  <defs>
    <style>
      .cls-1 {
        fill: #17459e;
      }

      .cls-2 {
        fill: #f3c811;
      }

      .cls-3 {
        fill: #304c99;
      }

      .cls-4 {
        fill: #ed1c24;
      }

      .cls-5 {
        fill: #78bf3d;
      }

      .cls-6 {
        fill: #fff;
      }

      .cls-7 {
        fill: #1c8230;
      }

      .cls-8 {
        fill: #d94040;
      }

      .cls-9 {
        fill: #9fcbff;
      }

      .cls-10 {
        fill: #91b8ff;
      }
    </style>
  </defs>
  <g>
    <g>
      <g>
        <path class="cls-9" d="M145.72,138.19l-118.18,1.77-14.59-48.47c-.2-.67-.16-1.4.13-2.04l28.42-63.7c.49-1.09,1.58-1.77,2.77-1.74l59,1.89c1,.03,1.92.58,2.43,1.44l42.43,71.99c.3.51.44,1.09.4,1.67l-2.82,37.18Z"/>
        <path class="cls-5" d="M127.01,168.84c-.33.52-.87.88-1.48.96-6.62.91-45.15,6.19-46.5,6.19h-38.19l-16.15-19.51c-.99-1.2-1.59-2.67-1.7-4.22l-2.72-36.22,17.31-4.71,58.44,1.72,34.98-.57,14.35,24.13c.53.88.51,1.99-.03,2.86l-18.3,29.37Z"/>
        <path class="cls-7" d="M128.88,148.46l-49.46,27.32c-.26.14-.55.22-.84.22h-36.93c-.52,0-1.01-.23-1.34-.63l-15.91-19.29c-.85-1.03-1.36-2.31-1.46-3.64l-.13-1.78,14.84-5.66c1.61-.23,49.21-5.07,50.81-4.76l40.41,8.23Z"/>
        <path class="cls-2" d="M79.97,111.36h-44.35c-1.81,0-2.73-2.17-1.48-3.47l17.68-18.4c.39-.4.92-.63,1.48-.63h43.67c1.81,0,2.74,2.18,1.47,3.48l-18.47,19v.02Z"/>
        <circle class="cls-2" cx="124.49" cy="57.81" r="25.53"/>
        <path class="cls-1" d="M59.45,88.86h0s-21.87,22.48-21.87,22.48v32.71c0,2.6,1.85,4.83,4.41,5.31l8.77,1.63,7.69,1.43,22.87,4.26v-45.35l-21.86-22.48Z"/>
        <path class="cls-2" d="M81.3,156.69l45.7-7.49c2.32-.38,4.02-2.38,4.02-4.73v-33.07h-49.72v45.3Z"/>
        <polygon class="cls-3" points="130.99 111.36 131.03 111.39 131.03 111.36 130.99 111.36"/>
        <polygon class="cls-3" points="81.3 111.36 81.3 111.39 131.03 111.39 130.99 111.36 81.3 111.36"/>
        <path class="cls-4" d="M93.05,121.05h9.63c1.22,0,2.21.99,2.21,2.21v29.55l-14.05,2.34v-31.89c0-1.22.99-2.21,2.21-2.21Z"/>
        <path class="cls-4" d="M111.88,121.05h11.19c.79,0,1.43.65,1.43,1.43v9.56c0,.75-.59,1.38-1.34,1.42l-6.35.4-4.83.35c-.83.06-1.53-.59-1.53-1.42v-10.32c0-.79.64-1.43,1.43-1.43Z"/>
        <path class="cls-4" d="M76.29,112.48h56.49c2.34,0,3.46-2.88,1.74-4.46l-20.14-18.48c-.47-.44-1.09-.68-1.74-.68h-54.16c-2.27,0-3.42,2.72-1.85,4.35l17.81,18.48c.48.5,1.15.79,1.85.79Z"/>
      </g>
      <path class="cls-6" d="M60.13,87.44h0c1.51.48,1.51,2.61,0,3.1h0c-2.91.93-5.18,3.21-6.12,6.12h0c-.48,1.51-2.61,1.51-3.1,0h0c-.93-2.91-3.21-5.18-6.12-6.12h0c-1.51-.48-1.51-2.61,0-3.1h0c2.91-.93,5.18-3.21,6.12-6.12h0c.48-1.51,2.61-1.51,3.1,0h0c.93,2.91,3.21,5.18,6.12,6.12Z"/>
      <path class="cls-6" d="M81.26,68.24h0c1.57.51,1.57,2.73,0,3.24h0c-3.04.97-5.41,3.35-6.39,6.39h0c-.51,1.57-2.73,1.57-3.24,0h0c-.97-3.04-3.35-5.41-6.39-6.39h0c-1.57-.51-1.57-2.73,0-3.24h0c3.04-.97,5.41-3.35,6.39-6.39h0c.51-1.57,2.73-1.57,3.24,0h0c.97,3.04,3.35,5.41,6.39,6.39Z"/>
      <path class="cls-6" d="M91.21,110.48h0c1.95.62,1.95,3.38,0,4h0c-3.76,1.21-6.7,4.15-7.9,7.9h0c-.62,1.95-3.38,1.95-4,0h0c-1.21-3.76-4.15-6.7-7.9-7.9h0c-1.95-.62-1.95-3.38,0-4h0c3.76-1.21,6.7-4.15,7.9-7.9h0c.62-1.95,3.38-1.95,4,0h0c1.21,3.76,4.15,6.7,7.9,7.9Z"/>
    </g>
    <rect class="cls-2" x="272.17" y="144.59" width="10.42" height="5.03"/>
    <polygon class="cls-2" points="205.84 86.5 167.43 87.29 168.34 131.11 219.9 131.08 211.87 86.76 205.84 86.5"/>
    <polygon class="cls-4" points="230.98 140.39 237.91 140.39 238 174.77 231.02 174.77 230.98 140.39"/>
    <polygon class="cls-10" points="249.78 144.59 260.38 144.59 260.38 170.36 251.86 170.36 249.78 144.59"/>
    <polygon class="cls-5" points="206.13 140.48 206.45 141.15 206.18 174.4 204.83 174.96 193.42 174.4 192.09 156.64 191.4 140.66 204.5 140.7 206.13 140.48"/>
    <polygon class="cls-5" points="210.22 36.91 218.96 37.18 219.9 61.04 219.53 61.04 210.22 36.91"/>
    <polygon class="cls-5" points="220.08 76.6 210.2 76.91 209.88 49.02 220.08 76.6"/>
    <polygon class="cls-2" points="234.84 36.97 246.98 36.97 244.75 76.59 234.84 76.76 234.84 36.97"/>
    <polygon class="cls-10" points="265.17 118.37 277.69 117.15 272.12 92.56 270.73 93.17 265.17 118.37"/>
    <polygon class="cls-8" points="258.38 66.97 270.9 65.75 265.33 41.16 263.94 41.77 258.38 66.97"/>
    <path d="M277.4,76.76l-7.24-.04-1.11-6.66-7.56-.21-1.66,6.92h-6.62l7.48-39.25,7.45.32,9.26,38.93ZM265.35,47.54h-.64l-2.25,16.62,1.13-.21,4.29-.27-2.52-16.14Z"/>
    <path d="M181.88,76.78v-19.52l-2.79,8.39-.8.11-4.11-9.84.7,20.64h-6.96v-39.84h5.73l4.41,10.88,4.13-11.31h5.97l.51,40.48h-6.77Z"/>
    <path d="M200.43,76.91h-7.66v-39.95h7.36v6.27l.3,33.67Z"/>
    <path d="M225.47,74.6l.21,2h-5.61l-9.7-25v25.31h-5.84l.04-24.47-.64-15.26h4.13l2.14-.27,3.27,8.45,6.12,15.3v-2.79l-.64-20.7h6.52v37.43Z"/>
    <path d="M251.02,76.59h-6.27l-1.13-2.79v-12.33l-5.09.32-1.66.11.16.97v.43l-.32,13.3h-6.06l-1.07.19-.11-39.49.32-.32h6.86l1.13,17.16,3.7-.21,2.47-.43-.21-.91v-10.4l-.27-5.2h6.54l1.02,39.62Z"/>
    <path d="M192.78,131.23l-24.44-.12-.91-43.82h25.48v18.59l-7.86,1.28.06-12.92-10.85.67,1.19,28.59,4.79.23h5.42l-.25-5.48-.06-5.25,7.8-.55-.37,18.77Z"/>
    <path d="M224.84,131.11l-8.23-.05-1.26-7.57-8.59-.24-1.89,7.86h-7.52l8.5-44.61,8.47.37,10.53,44.25ZM211.14,97.89h-.73l-2.56,18.89,1.28-.24,4.88-.3-2.86-18.34Z"/>
    <path d="M285.39,131.11l-8.23-.05-1.26-7.57-8.59-.24-1.89,7.86h-7.52l8.5-44.61,8.47.37,10.53,44.25ZM271.7,97.89h-.73l-2.56,18.89,1.28-.24,4.88-.3-2.86-18.34Z"/>
    <path d="M253.54,131.11h-23.77l-.06-19.08h6.34v12.49l10.51.24-.17-10.33-16.84-11.17-.51-17.01h16.52l7.19-.24v15.42l-6.22-.18v-8.78l-10.91-.3.37,7.19,12.86,8.41,4.63,2.74.06,20.6Z"/>
    <path d="M179.59,175v-16.93l-2.42,7.28-.7.09-3.57-8.54.6,17.91h-6.04v-34.57h4.97l3.83,9.44,3.58-9.82h5.18l.44,35.12h-5.88Z"/>
    <path d="M204.83,174.96l-17.08.05-.05-34.49,16.81.19v4.6l-11.86.38.23,8.62h8.05l.14,5.49h-7.84l.37,10.33h11.23v4.84Z"/>
    <path d="M222.79,174.4h-16.61v-33.36l-.05-.56h5.32l.31,11.17v9.54l.05,7.34,10.98-.59v6.47Z"/>
    <path d="M243.44,174.77h-5.44l-.98-2.42v-10.7l-4.42.28h-1.35l.05.93v11.58l-.28.33h-6.18l-.1-34.1,6.23-.28.98,14.89,3.21-.19,2.14-.37-.19-.79v-9.03l-.23-4.51h6.22l.34,34.38Z"/>
    <path d="M265.17,174.31h-17.86l-.33-34.1,5.12.23h12.42v21.82l.65,12.05ZM259.77,169.56v-15.07l-.47-8.61v-.56h-7.44l.51,24.24h7.4Z"/>
    <path d="M268.19,140.62h18.11v1.12l.88,12.1-4.89.06,1.12,4.96,3.63,16.19h-4.75l-2.14-6.23-.65-2.28-1.95-9.21-.7-3.52h-3.58l.74,9.76-.2,10.96h-5.1s-.51-33.9-.51-33.9ZM281.73,148.81l-.09-1.35.09-1.67h-8.65v3.02h8.65Z"/>
  </g>
  <path class="cls-6" d="M81.26,68.24h0c1.57.51,1.57,2.73,0,3.24h0c-3.04.97-5.41,3.35-6.39,6.39h0c-.51,1.57-2.73,1.57-3.24,0h0c-.97-3.04-3.35-5.41-6.39-6.39h0c-1.57-.51-1.57-2.73,0-3.24h0c3.04-.97,5.41-3.35,6.39-6.39h0c.51-1.57,2.73-1.57,3.24,0h0c.97,3.04,3.35,5.41,6.39,6.39Z"/>
</svg>