<?xml version="1.0" encoding="UTF-8"?>
<svg id="Camada_1" data-name="Camada 1" xmlns="http://www.w3.org/2000/svg" viewBox="0 0 300 200">
  <defs>
    <style>
      .cls-1 {
        fill: #fff;
      }
    </style>
  </defs>
  <path class="cls-1" d="M274.27,76.38l-7.27-.04-1.11-6.69-7.59-.22-1.67,6.95h-6.65l7.51-39.42,7.49.32,9.3,39.1ZM262.17,47.03h-.65l-2.26,16.69,1.13-.22,4.31-.27-2.53-16.21Z"/>
  <path class="cls-1" d="M178.32,76.4v-19.6l-2.81,8.43-.81.11-4.13-9.88.7,20.73h-6.99v-40.01h5.75l4.43,10.93,4.15-11.36h5.99l.51,40.66h-6.8Z"/>
  <path class="cls-1" d="M196.96,76.53h-7.69v-40.12h7.39v6.3l.3,33.82Z"/>
  <path class="cls-1" d="M222.11,74.22l.22,2.01h-5.63l-9.75-25.11v25.42h-5.86l.04-24.58-.64-15.33h4.15l2.15-.27,3.28,8.49,6.14,15.37v-2.8l-.65-20.79h6.55v37.59Z"/>
  <path class="cls-1" d="M247.77,76.21h-6.3l-1.13-2.8v-12.39l-5.12.32-1.67.11.16.97v.43l-.32,13.36h-6.09l-1.07.19-.11-39.66.32-.32h6.89l1.13,17.23,3.72-.22,2.48-.43-.22-.92v-10.45l-.27-5.22h6.57l1.02,39.8Z"/>
  <path class="cls-1" d="M189.28,131.09l-24.55-.12-.92-44.01h25.59v18.67l-7.9,1.29.06-12.98-10.9.67,1.19,28.72,4.81.23h5.45l-.25-5.5-.06-5.27,7.84-.55-.37,18.85Z"/>
  <path class="cls-1" d="M221.48,130.97l-8.27-.05-1.27-7.6-8.63-.24-1.9,7.9h-7.56l8.54-44.81,8.51.37,10.58,44.44ZM207.72,97.61h-.73l-2.57,18.98,1.29-.24,4.9-.31-2.88-18.43Z"/>
  <path class="cls-1" d="M282.3,130.97l-8.27-.05-1.27-7.6-8.63-.24-1.9,7.9h-7.56l8.54-44.81,8.51.37,10.58,44.44ZM268.54,97.61h-.73l-2.57,18.98,1.29-.24,4.9-.31-2.88-18.43Z"/>
  <path class="cls-1" d="M250.3,130.97h-23.87l-.06-19.16h6.37v12.55l10.56.24-.17-10.38-16.92-11.22-.51-17.09h16.59l7.22-.24v15.49l-6.24-.18v-8.81l-10.96-.31.37,7.22,12.92,8.45,4.65,2.75.06,20.69Z"/>
  <path class="cls-1" d="M176.03,175.06v-17.01l-2.43,7.31-.7.09-3.58-8.57.61,17.99h-6.07v-34.72h4.99l3.84,9.49,3.6-9.86h5.2l.45,35.28h-5.9Z"/>
  <path class="cls-1" d="M201.38,175.01l-17.15.05-.05-34.64,16.88.19v4.62l-11.91.38.23,8.66h8.08l.14,5.51h-7.87l.37,10.37h11.28v4.86Z"/>
  <path class="cls-1" d="M219.41,174.45h-16.68v-33.5l-.05-.56h5.35l.31,11.21v9.58l.05,7.37,11.03-.59v6.49Z"/>
  <path class="cls-1" d="M240.16,174.82h-5.47l-.98-2.43v-10.75l-4.44.28h-1.35l.05.93v11.63l-.28.33h-6.21l-.1-34.25,6.26-.28.98,14.95,3.22-.19,2.15-.37-.19-.79v-9.06l-.23-4.53h6.25l.34,34.53Z"/>
  <path class="cls-1" d="M261.98,174.36h-17.94l-.33-34.25,5.14.23h12.48v21.91l.65,12.1ZM256.56,169.59v-15.14l-.47-8.64v-.56h-7.48l.51,24.34h7.43Z"/>
  <path class="cls-1" d="M265.02,140.53h18.19v1.12l.88,12.15-4.91.06,1.12,4.99,3.64,16.26h-4.77l-2.15-6.26-.65-2.29-1.96-9.25-.7-3.54h-3.6l.75,9.8-.2,11.01h-5.12s-.51-34.05-.51-34.05ZM278.62,148.75l-.09-1.36.09-1.68h-8.69v3.04h8.69Z"/>
  <path class="cls-1" d="M34.42,143.52v-31.33h0s-.35-.01-.35-.01h-1.97v33.29l.19-.07.97-.33.13-.05.09-.03.9-.31h.04s.08-.04.08-.04c-.05-.26-.08-.52-.08-.79v-.33Z"/>
  <path class="cls-1" d="M54.33,89.41l1.42-.46,1.11-.36s.03-.05.02-.07l-.32-.1-2.24-.72c-2.49-.8-4.45-2.76-5.25-5.25l-.81-2.53s-.03-.02-.05-.02c0,0-.01,0-.02,0l-.82,2.55c-.8,2.49-2.76,4.45-5.25,5.25l-2.53.81s-.03.05-.02.07l2.55.82c.85.27,1.64.69,2.35,1.21.31.23.61.48.88.75.28.27.53.57.76.88.54.72.97,1.53,1.26,2.41l.44,1.38.37,1.16s.05.03.07.02l.78-2.43.04-.12c.27-.84.68-1.62,1.19-2.32.41-.55.88-1.05,1.42-1.49.07-.06.14-.11.21-.17.7-.53,1.48-.95,2.33-1.24.03-.01.07-.02.1-.04Z"/>
  <path class="cls-1" d="M45.17,95.37c-.16-.51-.4-.98-.69-1.41l-13.83,14.39c-.38.4-.23.85-.18.98s.28.55.83.55h3.06l.06-.06,11.56-11.89s0,0,0-.02l-.81-2.53Z"/>
  <path class="cls-1" d="M67.77,108.75l1.22-.39-15.47-15.99c-.31.21-.6.45-.86.71-.28.29-.54.61-.76.96l14.62,15.12,1.24-.4Z"/>
  <path class="cls-1" d="M78.93,119.15c.8-2.49,2.76-4.45,5.25-5.25l.68-.22.94-.3,2.37-.76,1.24-.4.08-.03s.02-.02.02-.04c0-.01,0-.02,0-.03l-2.16-.69-1.17-.38-.09-.03-1.91-.61c-.45-.14-.88-.33-1.29-.55-1.28-.67-2.35-1.68-3.11-2.9-.35-.56-.64-1.17-.84-1.81l-1.71-5.31s-.03-.02-.05-.02c0,0-.01,0-.02,0l-1.71,5.33c-.31.96-.79,1.83-1.4,2.6-.86,1.07-1.98,1.91-3.27,2.44-.19.08-.38.15-.58.21l-.63.2-.84.27-.39.13h-.03s-.03.02-.03.02l-2.87.92-.53.17s-.03.05-.02.07l3.11,1,2.22.71c.77.25,1.49.61,2.14,1.05,1.45,1.01,2.56,2.48,3.12,4.2l.87,2.69.84,2.62s.03.02.04.02c0,0,0,0,0,0,0,0,.02,0,.02,0l1.14-3.54.57-1.79Z"/>
  <path class="cls-1" d="M72.57,67.95c-1.09-.35-1.96-1.21-2.31-2.31l-1.25-3.89s-.01-.01-.02-.01c0,0,0,0,0,0l-1.25,3.9c-.35,1.09-1.21,1.96-2.31,2.31l-3.89,1.25s-.01.02,0,.03l3.9,1.25c1.09.35,1.96,1.21,2.31,2.31l1.25,3.89s.02.01.03,0l1.25-3.9c.35-1.09,1.21-1.96,2.31-2.31l3.89-1.25s.01-.02,0-.03l-3.9-1.25Z"/>
  <path class="cls-1" d="M96.09,57.24c0,13.5,10.98,24.48,24.48,24.48,3.86,0,7.52-.9,10.77-2.5.7-.34,1.37-.72,2.03-1.12,7-4.31,11.68-12.05,11.68-20.86,0-13.5-10.98-24.48-24.48-24.48-4.38,0-8.49,1.16-12.05,3.18-.67.38-1.33.8-1.96,1.24-6.33,4.43-10.47,11.77-10.47,20.06Z"/>
  <path class="cls-1" d="M91.49,113.37c-.11.18-.24.34-.39.49-.25.24-.56.42-.91.54l-5.31,1.71c-1.78.57-3.18,1.97-3.75,3.75l-1.71,5.31c-.19.59-.58,1.05-1.08,1.33v27.33l8.41-1.35v-29.53c0-1.21.99-2.19,2.22-2.19h9.67c1.23,0,2.22.98,2.22,2.19v27.27l15.55-2.49,3.25-.52,2.96-.47c.08-.01.16-.04.24-.06,1.14-.29,1.94-1.26,1.94-2.4v-30.9h-33.31ZM120.57,131.8c0,.76-.59,1.38-1.34,1.43l-6.38.4-4.85.35c-.83.06-1.54-.6-1.54-1.43v-10.37c0-.79.64-1.43,1.43-1.43h11.24c.79,0,1.43.65,1.43,1.44v9.61Z"/>
  <path class="cls-1" d="M145.28,100.06l-11.59-19.67-1.99,1.19.02.03c-3.4,1.56-7.17,2.44-11.14,2.44-14.78,0-26.8-12.02-26.8-26.8,0-8.82,4.29-16.66,10.89-21.54l.02.04,2.14-.94-4.15-7.04c-.51-.87-1.43-1.42-2.44-1.45l-59.26-1.9s-.06,0-.09,0c-.19,0-.37.02-.55.06h-.36s-.04-.01-.06-.01c-.71,0-1.34.41-1.63,1.06l-28.55,63.98c-.11.25-.16.52-.15.79-.23.61-.26,1.28-.07,1.9l7.42,24.65-.07.02,2.73,36.37c.12,1.56.71,3.04,1.71,4.24l16.22,19.59h38.36c1.36,0,40.06-5.3,46.71-6.21.61-.08,1.16-.44,1.49-.96l18.38-29.5c.25-.4.38-.84.41-1.29h0s2.83-37.34,2.83-37.34c.04-.59-.1-1.17-.4-1.68ZM80.21,69.22c0,.61-.37,1.12-.95,1.3l-5.14,1.65c-1.03.33-1.85,1.15-2.18,2.18l-1.65,5.14c-.19.58-.7.95-1.3.95s-1.12-.37-1.3-.95l-1.65-5.14c-.33-1.03-1.15-1.85-2.18-2.18l-5.14-1.65c-.58-.19-.95-.7-.95-1.3s.37-1.12.95-1.3l5.14-1.65c1.03-.33,1.85-1.15,2.18-2.18l1.65-5.14c.19-.58.7-.95,1.3-.95s1.12.37,1.3.95l1.65,5.14c.33,1.03,1.15,1.85,2.18,2.18l5.14,1.65c.58.19.95.7.95,1.3ZM140.49,139.12s0,.02-.01.03l-18.32,29.41c-21.9,3-44.62,6.07-46.33,6.18h-1.16s.05-.02.07-.03l45.75-25.27-43.29,7.11-22.97-4.28-7.72-1.44-8.81-1.64c-1.36-.25-2.52-1.01-3.32-2.05l-12.6,4.36-1.85-24.68v.03s-.77-10.63-.77-10.63l-.72-2.38,10.38-2.82c-.19-.23-.35-.5-.47-.79-.51-1.21-.27-2.55.64-3.49l13.86-14.42c-.44-.29-.92-.53-1.43-.7l-2.53-.81c-.99-.32-1.64-1.2-1.64-2.24s.64-1.92,1.64-2.24l2.53-.81c1.78-.57,3.18-1.97,3.75-3.75l.81-2.53c.32-.99,1.2-1.64,2.24-1.64s1.92.64,2.24,1.64l.81,2.53c.57,1.78,1.97,3.18,3.75,3.75l2.53.81c.95.31,1.57,1.13,1.63,2.11h49.46c.65,0,1.27.24,1.75.68l20.23,18.57c1.47,1.35.88,3.64-.78,4.29-.29.12-.62.19-.97.19h-.44l12.51,21.04-.12,1.55-.34,4.38Z"/>
</svg>